<svg id="visual" viewBox="0 0 1920 1440" width="1920" height="1440" xmlns="http://www.w3.org/2000/svg" xmlns:xlink="http://www.w3.org/1999/xlink" version="1.1"><rect x="0" y="0" width="1920" height="1440" fill="#171717"></rect><path d="M0 1043L128 1043L128 1071L256 1071L256 1091L384 1091L384 1088L512 1088L512 1066L640 1066L640 1068L768 1068L768 1055L896 1055L896 1054L1024 1054L1024 1048L1152 1048L1152 1084L1280 1084L1280 1045L1408 1045L1408 1061L1536 1061L1536 1114L1664 1114L1664 1089L1792 1089L1792 1061L1920 1061L1920 1060L1920 1441L1920 1441L1792 1441L1792 1441L1664 1441L1664 1441L1536 1441L1536 1441L1408 1441L1408 1441L1280 1441L1280 1441L1152 1441L1152 1441L1024 1441L1024 1441L896 1441L896 1441L768 1441L768 1441L640 1441L640 1441L512 1441L512 1441L384 1441L384 1441L256 1441L256 1441L128 1441L128 1441L0 1441Z" fill="#1e1e1e" stroke-linecap="square" stroke-linejoin="miter"></path></svg>