<svg id="visual" viewBox="0 0 900 900" width="900" height="900" xmlns="http://www.w3.org/2000/svg" xmlns:xlink="http://www.w3.org/1999/xlink" version="1.1"><g stroke-width="1" stroke-linejoin="bevel"><path d="M448 415L688 416L508 170Z" fill="#ececec" stroke="#ffffff"></path><path d="M688 416L660 162L508 170Z" fill="#eaeaea" stroke="#ffffff"></path><path d="M900 0L657 0L660 162Z" fill="#ffffff" stroke="#ffffff"></path><path d="M660 162L657 0L508 170Z" fill="#ffffff" stroke="#ffffff"></path><path d="M688 416L900 235L660 162Z" fill="#eaeaea" stroke="#ffffff"></path><path d="M688 416L900 420L900 235Z" fill="#eeeeee" stroke="#ffffff"></path><path d="M900 631L900 420L688 416Z" fill="#f8f8f8" stroke="#ffffff"></path><path d="M657 0L400 0L508 170Z" fill="#f6f6f6" stroke="#ffffff"></path><path d="M508 170L200 251L448 415Z" fill="#eeeeee" stroke="#ffffff"></path><path d="M400 0L200 251L508 170Z" fill="#eaeaea" stroke="#ffffff"></path><path d="M444 696L688 416L448 415Z" fill="#f6f6f6" stroke="#ffffff"></path><path d="M444 696L716 678L688 416Z" fill="#eaeaea" stroke="#ffffff"></path><path d="M200 251L193 445L448 415Z" fill="#ececec" stroke="#ffffff"></path><path d="M250 684L444 696L448 415Z" fill="#f4f4f4" stroke="#ffffff"></path><path d="M400 0L272 0L200 251Z" fill="#eaeaea" stroke="#ffffff"></path><path d="M900 235L900 0L660 162Z" fill="#f2f2f2" stroke="#ffffff"></path><path d="M716 678L900 631L688 416Z" fill="#ffffff" stroke="#ffffff"></path><path d="M193 445L250 684L448 415Z" fill="#f2f2f2" stroke="#ffffff"></path><path d="M200 251L0 418L193 445Z" fill="#fbfbfb" stroke="#ffffff"></path><path d="M193 445L0 658L250 684Z" fill="#eeeeee" stroke="#ffffff"></path><path d="M0 177L0 418L200 251Z" fill="#fbfbfb" stroke="#ffffff"></path><path d="M272 0L0 177L200 251Z" fill="#ececec" stroke="#ffffff"></path><path d="M444 696L614 900L716 678Z" fill="#f4f4f4" stroke="#ffffff"></path><path d="M716 678L900 900L900 631Z" fill="#f2f2f2" stroke="#ffffff"></path><path d="M512 900L614 900L444 696Z" fill="#fdfdfd" stroke="#ffffff"></path><path d="M179 900L512 900L444 696Z" fill="#f6f6f6" stroke="#ffffff"></path><path d="M272 0L0 0L0 177Z" fill="#f0f0f0" stroke="#ffffff"></path><path d="M0 418L0 658L193 445Z" fill="#fdfdfd" stroke="#ffffff"></path><path d="M250 684L179 900L444 696Z" fill="#f2f2f2" stroke="#ffffff"></path><path d="M614 900L900 900L716 678Z" fill="#eaeaea" stroke="#ffffff"></path><path d="M0 658L179 900L250 684Z" fill="#f8f8f8" stroke="#ffffff"></path><path d="M0 658L0 900L179 900Z" fill="#eeeeee" stroke="#ffffff"></path></g></svg>