<svg id="visual" viewBox="0 0 1920 1440" width="1920" height="1440" xmlns="http://www.w3.org/2000/svg" xmlns:xlink="http://www.w3.org/1999/xlink" version="1.1"><rect x="0" y="0" width="1920" height="1440" fill="#171717"></rect><path d="M0 222L113 222L113 277L226 277L226 177L339 177L339 135L452 135L452 265L565 265L565 294L678 294L678 166L791 166L791 163L904 163L904 139L1016 139L1016 161L1129 161L1129 195L1242 195L1242 263L1355 263L1355 184L1468 184L1468 194L1581 194L1581 280L1694 280L1694 270L1807 270L1807 265L1920 265L1920 262L1920 0L1920 0L1807 0L1807 0L1694 0L1694 0L1581 0L1581 0L1468 0L1468 0L1355 0L1355 0L1242 0L1242 0L1129 0L1129 0L1016 0L1016 0L904 0L904 0L791 0L791 0L678 0L678 0L565 0L565 0L452 0L452 0L339 0L339 0L226 0L226 0L113 0L113 0L0 0Z" fill="#1e1e1e" stroke-linecap="square" stroke-linejoin="miter"></path></svg>