<svg id="visual" viewBox="0 0 900 900" width="900" height="900" xmlns="http://www.w3.org/2000/svg" xmlns:xlink="http://www.w3.org/1999/xlink" version="1.1"><g stroke-width="1" stroke-linejoin="bevel"><path d="M435.5 425.8L394.8 418L399.8 466.3Z" fill="#f2f2f2" stroke="#cecece"></path><path d="M394.8 418L370.8 446.8L399.8 466.3Z" fill="#f5f5f5" stroke="#cecece"></path><path d="M399.8 466.3L450 473.8L435.5 425.8Z" fill="#f9f9f9" stroke="#cecece"></path><path d="M399.8 466.3L434 487L450 473.8Z" fill="#f7f7f7" stroke="#cecece"></path><path d="M370.8 446.8L365.5 480.3L399.8 466.3Z" fill="#fcfcfc" stroke="#cecece"></path><path d="M399.8 466.3L397 549.3L434 487Z" fill="#fafafa" stroke="#cecece"></path><path d="M511.5 437.8L501.5 433L450 473.8Z" fill="#fafafa" stroke="#cecece"></path><path d="M450 473.8L501.5 433L435.5 425.8Z" fill="#f4f4f4" stroke="#cecece"></path><path d="M435.5 425.8L409.5 340.3L394.8 418Z" fill="#fdfdfd" stroke="#cecece"></path><path d="M370.8 446.8L326.3 479.8L365.5 480.3Z" fill="#fafafa" stroke="#cecece"></path><path d="M365.5 480.3L397 549.3L399.8 466.3Z" fill="#f7f7f7" stroke="#cecece"></path><path d="M293.5 444L326.3 479.8L370.8 446.8Z" fill="#fcfcfc" stroke="#cecece"></path><path d="M326.3 479.8L326.3 481.3L365.5 480.3Z" fill="#efefef" stroke="#cecece"></path><path d="M520.3 529.3L511.5 437.8L450 473.8Z" fill="#f1f1f1" stroke="#cecece"></path><path d="M419 315.3L409.5 340.3L458.8 311.3Z" fill="#f5f5f5" stroke="#cecece"></path><path d="M500.5 341.3L409.5 340.3L435.5 425.8Z" fill="#efefef" stroke="#cecece"></path><path d="M394.8 418L302.3 402.5L370.8 446.8Z" fill="#f5f5f5" stroke="#cecece"></path><path d="M326.3 481.3L397 549.3L365.5 480.3Z" fill="#f1f1f1" stroke="#cecece"></path><path d="M434 487L502.3 541.8L450 473.8Z" fill="#fafafa" stroke="#cecece"></path><path d="M383 325.5L302.3 402.5L394.8 418Z" fill="#fdfdfd" stroke="#cecece"></path><path d="M326.3 479.8L293.5 444L326.3 481.3Z" fill="#fdfdfd" stroke="#cecece"></path><path d="M302.3 402.5L293.5 444L370.8 446.8Z" fill="#fcfcfc" stroke="#cecece"></path><path d="M409.5 340.3L383 325.5L394.8 418Z" fill="#f7f7f7" stroke="#cecece"></path><path d="M500.5 341.3L435.5 425.8L501.5 433Z" fill="#f7f7f7" stroke="#cecece"></path><path d="M409.5 340.3L419 315.3L383 325.5Z" fill="#f4f4f4" stroke="#cecece"></path><path d="M511.5 437.8L500.5 341.3L501.5 433Z" fill="#fdfdfd" stroke="#cecece"></path><path d="M397 549.3L502.3 541.8L434 487Z" fill="#efefef" stroke="#cecece"></path><path d="M500.5 341.3L458.8 311.3L409.5 340.3Z" fill="#f7f7f7" stroke="#cecece"></path><path d="M502.3 541.8L520.3 529.3L450 473.8Z" fill="#f9f9f9" stroke="#cecece"></path><path d="M500.5 341.3L464.8 309.5L458.8 311.3Z" fill="#fcfcfc" stroke="#cecece"></path><path d="M458.8 311.3L427.5 300L419 315.3Z" fill="#ffffff" stroke="#cecece"></path><path d="M464.8 309.5L427.5 300L458.8 311.3Z" fill="#fdfdfd" stroke="#cecece"></path><path d="M419 315.3L361.3 298L383 325.5Z" fill="#f7f7f7" stroke="#cecece"></path><path d="M500.5 620L512.3 553.5L502.3 541.8Z" fill="#f5f5f5" stroke="#cecece"></path><path d="M502.3 541.8L512.3 553.5L520.3 529.3Z" fill="#f5f5f5" stroke="#cecece"></path><path d="M427.5 300L361.3 298L419 315.3Z" fill="#ffffff" stroke="#cecece"></path><path d="M383 325.5L361.3 298L302.3 402.5Z" fill="#f4f4f4" stroke="#cecece"></path><path d="M240 603.3L397.5 606.5L397 549.3Z" fill="#f7f7f7" stroke="#cecece"></path><path d="M397 549.3L397.5 606.5L502.3 541.8Z" fill="#fcfcfc" stroke="#cecece"></path><path d="M250 530L397 549.3L326.3 481.3Z" fill="#f2f2f2" stroke="#cecece"></path><path d="M511.5 437.8L548.3 334.8L500.5 341.3Z" fill="#f9f9f9" stroke="#cecece"></path><path d="M500.5 341.3L543.3 309.3L464.8 309.5Z" fill="#f4f4f4" stroke="#cecece"></path><path d="M555.8 325.3L548.3 334.8L595.3 344.5Z" fill="#f7f7f7" stroke="#cecece"></path><path d="M361.3 298L253 360.3L302.3 402.5Z" fill="#fafafa" stroke="#cecece"></path><path d="M302.3 402.5L228.8 420.3L293.5 444Z" fill="#fcfcfc" stroke="#cecece"></path><path d="M253 360.3L238.5 383.5L302.3 402.5Z" fill="#ffffff" stroke="#cecece"></path><path d="M293.5 444L250 530L326.3 481.3Z" fill="#fdfdfd" stroke="#cecece"></path><path d="M238.5 383.5L228.8 420.3L302.3 402.5Z" fill="#f2f2f2" stroke="#cecece"></path><path d="M219.3 500L250 530L293.5 444Z" fill="#ffffff" stroke="#cecece"></path><path d="M595.3 344.5L548.3 334.8L511.5 437.8Z" fill="#efefef" stroke="#cecece"></path><path d="M548.3 334.8L543.3 309.3L500.5 341.3Z" fill="#f7f7f7" stroke="#cecece"></path><path d="M404 232.8L377 258L427.5 300Z" fill="#f7f7f7" stroke="#cecece"></path><path d="M427.5 300L377 258L361.3 298Z" fill="#f5f5f5" stroke="#cecece"></path><path d="M361.3 298L251 306L253 360.3Z" fill="#f2f2f2" stroke="#cecece"></path><path d="M404 232.8L427.5 300L440.8 233Z" fill="#ffffff" stroke="#cecece"></path><path d="M555.8 325.3L543.3 309.3L548.3 334.8Z" fill="#f1f1f1" stroke="#cecece"></path><path d="M512.3 553.5L586.3 528L520.3 529.3Z" fill="#ffffff" stroke="#cecece"></path><path d="M520.3 529.3L586.3 528L511.5 437.8Z" fill="#fdfdfd" stroke="#cecece"></path><path d="M580.8 588.5L586.3 528L512.3 553.5Z" fill="#f4f4f4" stroke="#cecece"></path><path d="M397.5 606.5L500.5 620L502.3 541.8Z" fill="#f5f5f5" stroke="#cecece"></path><path d="M210 487.8L219.3 500L293.5 444Z" fill="#ffffff" stroke="#cecece"></path><path d="M171.5 443L210 487.8L228.8 420.3Z" fill="#f9f9f9" stroke="#cecece"></path><path d="M228.8 420.3L210 487.8L293.5 444Z" fill="#f2f2f2" stroke="#cecece"></path><path d="M622 362.5L595.3 344.5L511.5 437.8Z" fill="#f7f7f7" stroke="#cecece"></path><path d="M555.8 325.3L609 315.8L543.3 309.3Z" fill="#f1f1f1" stroke="#cecece"></path><path d="M440.8 233L427.5 300L464.8 309.5Z" fill="#efefef" stroke="#cecece"></path><path d="M322.3 200.8L251 306L361.3 298Z" fill="#efefef" stroke="#cecece"></path><path d="M184.5 344.8L181 356.5L238.5 383.5Z" fill="#f4f4f4" stroke="#cecece"></path><path d="M181 356.5L171.5 443L228.8 420.3Z" fill="#f4f4f4" stroke="#cecece"></path><path d="M322.3 200.8L361.3 298L377 258Z" fill="#f2f2f2" stroke="#cecece"></path><path d="M482.5 241.5L440.8 233L464.8 309.5Z" fill="#f9f9f9" stroke="#cecece"></path><path d="M482.5 241.5L464.8 309.5L543.3 309.3Z" fill="#f2f2f2" stroke="#cecece"></path><path d="M543.5 189.8L482.5 241.5L543.3 309.3Z" fill="#efefef" stroke="#cecece"></path><path d="M210 487.8L217 527.5L219.3 500Z" fill="#f2f2f2" stroke="#cecece"></path><path d="M219.3 500L217 527.5L250 530Z" fill="#fafafa" stroke="#cecece"></path><path d="M250 530L240 603.3L397 549.3Z" fill="#fcfcfc" stroke="#cecece"></path><path d="M620 492L624 460.3L511.5 437.8Z" fill="#f7f7f7" stroke="#cecece"></path><path d="M645.8 547.3L620 492L586.3 528Z" fill="#fafafa" stroke="#cecece"></path><path d="M586.3 528L620 492L511.5 437.8Z" fill="#f9f9f9" stroke="#cecece"></path><path d="M397.5 606.5L472.8 647.5L500.5 620Z" fill="#fcfcfc" stroke="#cecece"></path><path d="M390.5 684.3L472.8 647.5L397.5 606.5Z" fill="#f7f7f7" stroke="#cecece"></path><path d="M472.8 647.5L502 639.5L500.5 620Z" fill="#f4f4f4" stroke="#cecece"></path><path d="M535.5 628.5L580.8 588.5L512.3 553.5Z" fill="#f2f2f2" stroke="#cecece"></path><path d="M217 527.5L227.8 567.5L250 530Z" fill="#f2f2f2" stroke="#cecece"></path><path d="M624 460.3L622 362.5L511.5 437.8Z" fill="#fafafa" stroke="#cecece"></path><path d="M595.3 344.5L609 315.8L555.8 325.3Z" fill="#f7f7f7" stroke="#cecece"></path><path d="M535.5 628.5L512.3 553.5L500.5 620Z" fill="#ffffff" stroke="#cecece"></path><path d="M502 639.5L535.5 628.5L500.5 620Z" fill="#ffffff" stroke="#cecece"></path><path d="M622 362.5L609 315.8L595.3 344.5Z" fill="#f2f2f2" stroke="#cecece"></path><path d="M227.8 567.5L240 603.3L250 530Z" fill="#f7f7f7" stroke="#cecece"></path><path d="M181 356.5L228.8 420.3L238.5 383.5Z" fill="#fcfcfc" stroke="#cecece"></path><path d="M119.8 523L155.8 567.8L217 527.5Z" fill="#f2f2f2" stroke="#cecece"></path><path d="M217 527.5L211.5 578L227.8 567.5Z" fill="#ffffff" stroke="#cecece"></path><path d="M227.8 567.5L211.5 578L240 603.3Z" fill="#f7f7f7" stroke="#cecece"></path><path d="M663.8 520.8L649.3 476.8L620 492Z" fill="#f2f2f2" stroke="#cecece"></path><path d="M620 492L649.3 476.8L624 460.3Z" fill="#f4f4f4" stroke="#cecece"></path><path d="M624 460.3L654.8 417.5L622 362.5Z" fill="#fafafa" stroke="#cecece"></path><path d="M155.8 567.8L211.5 578L217 527.5Z" fill="#f9f9f9" stroke="#cecece"></path><path d="M649.3 476.8L654.3 465.3L624 460.3Z" fill="#f5f5f5" stroke="#cecece"></path><path d="M622 362.5L648.5 295L609 315.8Z" fill="#f2f2f2" stroke="#cecece"></path><path d="M654.3 465.3L654.8 417.5L624 460.3Z" fill="#fdfdfd" stroke="#cecece"></path><path d="M364.8 692.8L390.5 684.3L397.5 606.5Z" fill="#f4f4f4" stroke="#cecece"></path><path d="M472.8 647.5L518.8 669.3L502 639.5Z" fill="#f2f2f2" stroke="#cecece"></path><path d="M502 639.5L518.8 669.3L535.5 628.5Z" fill="#f1f1f1" stroke="#cecece"></path><path d="M184.5 344.8L238.5 383.5L253 360.3Z" fill="#f7f7f7" stroke="#cecece"></path><path d="M251 306L184.5 344.8L253 360.3Z" fill="#ffffff" stroke="#cecece"></path><path d="M631.5 608.8L622.5 570.3L580.8 588.5Z" fill="#f4f4f4" stroke="#cecece"></path><path d="M580.8 588.5L622.5 570.3L586.3 528Z" fill="#f5f5f5" stroke="#cecece"></path><path d="M649.3 476.8L704.5 512.5L654.3 465.3Z" fill="#fafafa" stroke="#cecece"></path><path d="M199 616.8L241.3 626.5L240 603.3Z" fill="#f9f9f9" stroke="#cecece"></path><path d="M240 603.3L260.3 657L397.5 606.5Z" fill="#ffffff" stroke="#cecece"></path><path d="M485 694L518.8 669.3L472.8 647.5Z" fill="#f5f5f5" stroke="#cecece"></path><path d="M588.5 673.3L631.5 608.8L580.8 588.5Z" fill="#f5f5f5" stroke="#cecece"></path><path d="M330.3 184.5L404 232.8L387.8 138.8Z" fill="#fcfcfc" stroke="#cecece"></path><path d="M330.3 184.5L322.3 200.8L404 232.8Z" fill="#efefef" stroke="#cecece"></path><path d="M404 232.8L322.3 200.8L377 258Z" fill="#efefef" stroke="#cecece"></path><path d="M251 306L160.8 299.8L184.5 344.8Z" fill="#fcfcfc" stroke="#cecece"></path><path d="M260.3 657L364.8 692.8L397.5 606.5Z" fill="#efefef" stroke="#cecece"></path><path d="M421 704.8L485 694L472.8 647.5Z" fill="#f9f9f9" stroke="#cecece"></path><path d="M622.5 570.3L645.8 547.3L586.3 528Z" fill="#f5f5f5" stroke="#cecece"></path><path d="M421 704.8L472.8 647.5L390.5 684.3Z" fill="#efefef" stroke="#cecece"></path><path d="M241.3 626.5L260.3 657L240 603.3Z" fill="#f7f7f7" stroke="#cecece"></path><path d="M414.5 742.5L421 704.8L390.5 684.3Z" fill="#f5f5f5" stroke="#cecece"></path><path d="M645.8 547.3L663.8 520.8L620 492Z" fill="#ffffff" stroke="#cecece"></path><path d="M708.8 414L693.5 397L654.8 417.5Z" fill="#ffffff" stroke="#cecece"></path><path d="M387.8 138.8L404 232.8L433.8 132.5Z" fill="#fdfdfd" stroke="#cecece"></path><path d="M206.3 238.3L160.8 299.8L251 306Z" fill="#f5f5f5" stroke="#cecece"></path><path d="M536.3 184.8L480.3 178.5L482.5 241.5Z" fill="#f5f5f5" stroke="#cecece"></path><path d="M482.5 241.5L480.3 178.5L440.8 233Z" fill="#f1f1f1" stroke="#cecece"></path><path d="M308.5 152.8L323 181.8L330.3 184.5Z" fill="#fcfcfc" stroke="#cecece"></path><path d="M330.3 184.5L323 181.8L322.3 200.8Z" fill="#f1f1f1" stroke="#cecece"></path><path d="M155.8 567.8L199 616.8L211.5 578Z" fill="#f1f1f1" stroke="#cecece"></path><path d="M211.5 578L199 616.8L240 603.3Z" fill="#f5f5f5" stroke="#cecece"></path><path d="M241.3 626.5L239.5 664L260.3 657Z" fill="#fdfdfd" stroke="#cecece"></path><path d="M588.5 673.3L580.8 588.5L535.5 628.5Z" fill="#fafafa" stroke="#cecece"></path><path d="M622.5 570.3L690 575.5L645.8 547.3Z" fill="#f4f4f4" stroke="#cecece"></path><path d="M645.8 547.3L686.3 521.5L663.8 520.8Z" fill="#f4f4f4" stroke="#cecece"></path><path d="M588.5 673.3L535.5 628.5L518.8 669.3Z" fill="#efefef" stroke="#cecece"></path><path d="M703.8 323.8L648.5 295L622 362.5Z" fill="#fdfdfd" stroke="#cecece"></path><path d="M621.5 203.5L543.5 189.8L543.3 309.3Z" fill="#f5f5f5" stroke="#cecece"></path><path d="M693.5 397L622 362.5L654.8 417.5Z" fill="#f9f9f9" stroke="#cecece"></path><path d="M199 616.8L239.5 664L241.3 626.5Z" fill="#fafafa" stroke="#cecece"></path><path d="M260.3 657L298.8 730L364.8 692.8Z" fill="#f2f2f2" stroke="#cecece"></path><path d="M621.5 203.5L543.3 309.3L609 315.8Z" fill="#f5f5f5" stroke="#cecece"></path><path d="M543.5 189.8L536.3 184.8L482.5 241.5Z" fill="#fafafa" stroke="#cecece"></path><path d="M708.8 414L654.8 417.5L654.3 465.3Z" fill="#fafafa" stroke="#cecece"></path><path d="M119.8 523L217 527.5L210 487.8Z" fill="#f2f2f2" stroke="#cecece"></path><path d="M199 616.8L189 623L239.5 664Z" fill="#f5f5f5" stroke="#cecece"></path><path d="M149.3 568.5L155.8 567.8L119.8 523Z" fill="#ffffff" stroke="#cecece"></path><path d="M690 575.5L686.3 521.5L645.8 547.3Z" fill="#f7f7f7" stroke="#cecece"></path><path d="M663.8 520.8L686.3 521.5L649.3 476.8Z" fill="#f5f5f5" stroke="#cecece"></path><path d="M184.5 344.8L156.5 305.5L181 356.5Z" fill="#fdfdfd" stroke="#cecece"></path><path d="M60.5 435.3L117.3 492L171.5 443Z" fill="#f5f5f5" stroke="#cecece"></path><path d="M206.3 238.3L251 306L322.3 200.8Z" fill="#f1f1f1" stroke="#cecece"></path><path d="M155.8 567.8L189 623L199 616.8Z" fill="#f5f5f5" stroke="#cecece"></path><path d="M219.8 153L206.3 238.3L322.3 200.8Z" fill="#f5f5f5" stroke="#cecece"></path><path d="M160.8 299.8L156.5 305.5L184.5 344.8Z" fill="#f2f2f2" stroke="#cecece"></path><path d="M117.3 492L210 487.8L171.5 443Z" fill="#efefef" stroke="#cecece"></path><path d="M155.8 567.8L149.3 568.5L189 623Z" fill="#f5f5f5" stroke="#cecece"></path><path d="M563.3 722.3L588.5 673.3L518.8 669.3Z" fill="#f7f7f7" stroke="#cecece"></path><path d="M704.5 512.5L708.8 414L654.3 465.3Z" fill="#f9f9f9" stroke="#cecece"></path><path d="M693.5 397L703.8 323.8L622 362.5Z" fill="#fcfcfc" stroke="#cecece"></path><path d="M60.5 435.3L171.5 443L181 356.5Z" fill="#f9f9f9" stroke="#cecece"></path><path d="M735.3 540L704.5 512.5L686.3 521.5Z" fill="#fcfcfc" stroke="#cecece"></path><path d="M686.3 521.5L704.5 512.5L649.3 476.8Z" fill="#fafafa" stroke="#cecece"></path><path d="M690 575.5L622.5 570.3L631.5 608.8Z" fill="#ffffff" stroke="#cecece"></path><path d="M364.8 692.8L414.5 742.5L390.5 684.3Z" fill="#efefef" stroke="#cecece"></path><path d="M421 704.8L446.8 750.8L485 694Z" fill="#ffffff" stroke="#cecece"></path><path d="M510.3 749.8L563.3 722.3L518.8 669.3Z" fill="#f2f2f2" stroke="#cecece"></path><path d="M383 785.3L414.5 742.5L364.8 692.8Z" fill="#f4f4f4" stroke="#cecece"></path><path d="M799.8 422L711.3 397.5L708.8 414Z" fill="#f1f1f1" stroke="#cecece"></path><path d="M708.8 414L711.3 397.5L693.5 397Z" fill="#f5f5f5" stroke="#cecece"></path><path d="M433.8 132.5L404 232.8L440.8 233Z" fill="#f9f9f9" stroke="#cecece"></path><path d="M323 181.8L308.5 152.8L322.3 200.8Z" fill="#fcfcfc" stroke="#cecece"></path><path d="M433.8 132.5L440.8 233L480.3 178.5Z" fill="#efefef" stroke="#cecece"></path><path d="M117.3 492L119.8 523L210 487.8Z" fill="#efefef" stroke="#cecece"></path><path d="M387.8 138.8L308.5 152.8L330.3 184.5Z" fill="#f1f1f1" stroke="#cecece"></path><path d="M588.5 673.3L650 635.8L631.5 608.8Z" fill="#f5f5f5" stroke="#cecece"></path><path d="M444.3 132L433.8 132.5L480.3 178.5Z" fill="#f5f5f5" stroke="#cecece"></path><path d="M650 635.8L690 575.5L631.5 608.8Z" fill="#f4f4f4" stroke="#cecece"></path><path d="M202.3 709.8L250.5 705.8L239.5 664Z" fill="#fdfdfd" stroke="#cecece"></path><path d="M239.5 664L250.5 705.8L260.3 657Z" fill="#fdfdfd" stroke="#cecece"></path><path d="M536.3 184.8L444.3 132L480.3 178.5Z" fill="#efefef" stroke="#cecece"></path><path d="M250.5 705.8L298.8 730L260.3 657Z" fill="#f7f7f7" stroke="#cecece"></path><path d="M420.8 754.3L446.8 750.8L414.5 742.5Z" fill="#fdfdfd" stroke="#cecece"></path><path d="M414.5 742.5L446.8 750.8L421 704.8Z" fill="#f1f1f1" stroke="#cecece"></path><path d="M383 785.3L420.8 754.3L414.5 742.5Z" fill="#fdfdfd" stroke="#cecece"></path><path d="M711.3 397.5L703.8 323.8L693.5 397Z" fill="#fdfdfd" stroke="#cecece"></path><path d="M648.5 295L621.5 203.5L609 315.8Z" fill="#efefef" stroke="#cecece"></path><path d="M709.3 209.8L621.5 203.5L648.5 295Z" fill="#f1f1f1" stroke="#cecece"></path><path d="M543.5 189.8L630 161.8L536.3 184.8Z" fill="#f9f9f9" stroke="#cecece"></path><path d="M539 15.5L435.8 75.3L444.3 132Z" fill="#f1f1f1" stroke="#cecece"></path><path d="M510.3 749.8L518.8 669.3L485 694Z" fill="#fafafa" stroke="#cecece"></path><path d="M588.5 673.3L584.8 713L650 635.8Z" fill="#f4f4f4" stroke="#cecece"></path><path d="M563.3 722.3L584.8 713L588.5 673.3Z" fill="#f2f2f2" stroke="#cecece"></path><path d="M250.5 705.8L289 739.3L298.8 730Z" fill="#fcfcfc" stroke="#cecece"></path><path d="M350 796.8L383 785.3L364.8 692.8Z" fill="#f7f7f7" stroke="#cecece"></path><path d="M446.8 750.8L510.3 749.8L485 694Z" fill="#ffffff" stroke="#cecece"></path><path d="M563.3 722.3L581 794.8L584.8 713Z" fill="#f5f5f5" stroke="#cecece"></path><path d="M525.3 759L510.3 749.8L485.5 777.5Z" fill="#f4f4f4" stroke="#cecece"></path><path d="M149.3 568.5L91.3 582L189 623Z" fill="#f5f5f5" stroke="#cecece"></path><path d="M189 623L202.3 709.8L239.5 664Z" fill="#f7f7f7" stroke="#cecece"></path><path d="M119.8 523L103.3 550.8L149.3 568.5Z" fill="#f7f7f7" stroke="#cecece"></path><path d="M43.3 500.3L103.3 550.8L119.8 523Z" fill="#efefef" stroke="#cecece"></path><path d="M91.3 582L103.3 550.8L19.5 559.5Z" fill="#fcfcfc" stroke="#cecece"></path><path d="M754 296.3L703.3 285L703.8 323.8Z" fill="#f2f2f2" stroke="#cecece"></path><path d="M703.8 323.8L703.3 285L648.5 295Z" fill="#f7f7f7" stroke="#cecece"></path><path d="M160.8 299.8L117.3 282.5L156.5 305.5Z" fill="#fcfcfc" stroke="#cecece"></path><path d="M156.5 305.5L60.5 435.3L181 356.5Z" fill="#fdfdfd" stroke="#cecece"></path><path d="M112.8 276.5L117.3 282.5L160.8 299.8Z" fill="#fcfcfc" stroke="#cecece"></path><path d="M112.8 276.5L160.8 299.8L206.3 238.3Z" fill="#fdfdfd" stroke="#cecece"></path><path d="M485.5 777.5L510.3 749.8L446.8 750.8Z" fill="#fdfdfd" stroke="#cecece"></path><path d="M510.3 749.8L525.3 759L563.3 722.3Z" fill="#f7f7f7" stroke="#cecece"></path><path d="M806.5 622.8L735.3 540L690 575.5Z" fill="#f1f1f1" stroke="#cecece"></path><path d="M690 575.5L735.3 540L686.3 521.5Z" fill="#f7f7f7" stroke="#cecece"></path><path d="M704.5 512.5L799.8 422L708.8 414Z" fill="#f9f9f9" stroke="#cecece"></path><path d="M711.3 397.5L754 296.3L703.8 323.8Z" fill="#efefef" stroke="#cecece"></path><path d="M729.3 678.3L690 575.5L650 635.8Z" fill="#f1f1f1" stroke="#cecece"></path><path d="M116.8 184.8L112.8 276.5L206.3 238.3Z" fill="#f5f5f5" stroke="#cecece"></path><path d="M117.3 282.5L103.8 281.3L156.5 305.5Z" fill="#f4f4f4" stroke="#cecece"></path><path d="M105.8 722L202.3 709.8L189 623Z" fill="#f9f9f9" stroke="#cecece"></path><path d="M250.5 705.8L254.5 762.8L289 739.3Z" fill="#f7f7f7" stroke="#cecece"></path><path d="M480 840.5L485.5 777.5L420.8 754.3Z" fill="#fafafa" stroke="#cecece"></path><path d="M420.8 754.3L485.5 777.5L446.8 750.8Z" fill="#f5f5f5" stroke="#cecece"></path><path d="M193.5 120.5L219.8 153L308.5 152.8Z" fill="#fdfdfd" stroke="#cecece"></path><path d="M308.5 152.8L219.8 153L322.3 200.8Z" fill="#f7f7f7" stroke="#cecece"></path><path d="M329.3 32.3L308.5 152.8L387.8 138.8Z" fill="#f2f2f2" stroke="#cecece"></path><path d="M350 796.8L298.8 730L289 739.3Z" fill="#efefef" stroke="#cecece"></path><path d="M350 796.8L364.8 692.8L298.8 730Z" fill="#f4f4f4" stroke="#cecece"></path><path d="M106.5 185.3L103.8 281.3L112.8 276.5Z" fill="#ffffff" stroke="#cecece"></path><path d="M112.8 276.5L103.8 281.3L117.3 282.5Z" fill="#fafafa" stroke="#cecece"></path><path d="M43.3 500.3L119.8 523L117.3 492Z" fill="#f1f1f1" stroke="#cecece"></path><path d="M103.3 550.8L91.3 582L149.3 568.5Z" fill="#fdfdfd" stroke="#cecece"></path><path d="M103.8 281.3L60.5 435.3L156.5 305.5Z" fill="#fdfdfd" stroke="#cecece"></path><path d="M667.8 173L630 161.8L621.5 203.5Z" fill="#f5f5f5" stroke="#cecece"></path><path d="M621.5 203.5L630 161.8L543.5 189.8Z" fill="#fcfcfc" stroke="#cecece"></path><path d="M202.3 709.8L254.5 762.8L250.5 705.8Z" fill="#efefef" stroke="#cecece"></path><path d="M254.5 762.8L350 796.8L289 739.3Z" fill="#fdfdfd" stroke="#cecece"></path><path d="M480 840.5L533.5 783.8L485.5 777.5Z" fill="#f4f4f4" stroke="#cecece"></path><path d="M576.3 808.5L533.5 783.8L480 840.5Z" fill="#f1f1f1" stroke="#cecece"></path><path d="M485.5 777.5L533.5 783.8L525.3 759Z" fill="#fdfdfd" stroke="#cecece"></path><path d="M525.3 759L533.5 783.8L563.3 722.3Z" fill="#f5f5f5" stroke="#cecece"></path><path d="M584.8 713L710.3 687.8L650 635.8Z" fill="#f9f9f9" stroke="#cecece"></path><path d="M444.3 132L435.8 75.3L433.8 132.5Z" fill="#f4f4f4" stroke="#cecece"></path><path d="M433.8 132.5L418.5 73.5L387.8 138.8Z" fill="#efefef" stroke="#cecece"></path><path d="M539 15.5L444.3 132L536.3 184.8Z" fill="#f5f5f5" stroke="#cecece"></path><path d="M435.8 75.3L418.5 73.5L433.8 132.5Z" fill="#ffffff" stroke="#cecece"></path><path d="M709.3 209.8L667.8 173L621.5 203.5Z" fill="#f5f5f5" stroke="#cecece"></path><path d="M630 161.8L612.5 84.3L536.3 184.8Z" fill="#ffffff" stroke="#cecece"></path><path d="M193.5 120.5L174 155.5L219.8 153Z" fill="#f4f4f4" stroke="#cecece"></path><path d="M219.8 153L174 155.5L206.3 238.3Z" fill="#f1f1f1" stroke="#cecece"></path><path d="M812.5 380.8L754 296.3L711.3 397.5Z" fill="#fafafa" stroke="#cecece"></path><path d="M703.3 285L709.3 209.8L648.5 295Z" fill="#f7f7f7" stroke="#cecece"></path><path d="M60.5 435.3L43.3 500.3L117.3 492Z" fill="#f4f4f4" stroke="#cecece"></path><path d="M711.8 211.8L709.3 209.8L703.3 285Z" fill="#fafafa" stroke="#cecece"></path><path d="M754 296.3L711.8 211.8L703.3 285Z" fill="#f1f1f1" stroke="#cecece"></path><path d="M709.3 209.8L719.5 194.8L667.8 173Z" fill="#efefef" stroke="#cecece"></path><path d="M19.5 559.5L59.5 601.8L91.3 582Z" fill="#fafafa" stroke="#cecece"></path><path d="M91.3 582L105.8 722L189 623Z" fill="#f2f2f2" stroke="#cecece"></path><path d="M202.3 709.8L199.5 787.3L254.5 762.8Z" fill="#efefef" stroke="#cecece"></path><path d="M329.3 32.3L193.5 120.5L308.5 152.8Z" fill="#f1f1f1" stroke="#cecece"></path><path d="M174 155.5L116.8 184.8L206.3 238.3Z" fill="#efefef" stroke="#cecece"></path><path d="M673 765L710.3 687.8L584.8 713Z" fill="#f5f5f5" stroke="#cecece"></path><path d="M826.8 585.5L799.8 422L735.3 540Z" fill="#ffffff" stroke="#cecece"></path><path d="M735.3 540L799.8 422L704.5 512.5Z" fill="#fdfdfd" stroke="#cecece"></path><path d="M193.5 120.5L147.8 153.5L174 155.5Z" fill="#ffffff" stroke="#cecece"></path><path d="M147.8 153.5L116.8 184.8L174 155.5Z" fill="#ffffff" stroke="#cecece"></path><path d="M103.8 281.3L12.3 331.3L60.5 435.3Z" fill="#f4f4f4" stroke="#cecece"></path><path d="M0 525.3L19.5 559.5L43.3 500.3Z" fill="#fafafa" stroke="#cecece"></path><path d="M799.8 422L802.5 413.3L711.3 397.5Z" fill="#f7f7f7" stroke="#cecece"></path><path d="M576.3 808.5L581 794.8L533.5 783.8Z" fill="#fdfdfd" stroke="#cecece"></path><path d="M533.5 783.8L581 794.8L563.3 722.3Z" fill="#fcfcfc" stroke="#cecece"></path><path d="M736 181L719.5 194.8L711.8 211.8Z" fill="#fdfdfd" stroke="#cecece"></path><path d="M711.8 211.8L719.5 194.8L709.3 209.8Z" fill="#ffffff" stroke="#cecece"></path><path d="M667.8 173L649 123.3L630 161.8Z" fill="#f1f1f1" stroke="#cecece"></path><path d="M779.3 288.3L711.8 211.8L754 296.3Z" fill="#fafafa" stroke="#cecece"></path><path d="M689.3 154.3L649 123.3L667.8 173Z" fill="#f4f4f4" stroke="#cecece"></path><path d="M743 702.5L729.3 678.3L710.3 687.8Z" fill="#fcfcfc" stroke="#cecece"></path><path d="M710.3 687.8L729.3 678.3L650 635.8Z" fill="#f7f7f7" stroke="#cecece"></path><path d="M916.8 399.8L885.8 364.3L802.5 413.3Z" fill="#f7f7f7" stroke="#cecece"></path><path d="M113.5 176L106.5 185.3L116.8 184.8Z" fill="#f1f1f1" stroke="#cecece"></path><path d="M116.8 184.8L106.5 185.3L112.8 276.5Z" fill="#f5f5f5" stroke="#cecece"></path><path d="M812.5 380.8L779.3 288.3L754 296.3Z" fill="#f7f7f7" stroke="#cecece"></path><path d="M147.8 153.5L113.5 176L116.8 184.8Z" fill="#ffffff" stroke="#cecece"></path><path d="M117.3 153L113.5 176L147.8 153.5Z" fill="#f2f2f2" stroke="#cecece"></path><path d="M719.5 194.8L689.3 154.3L667.8 173Z" fill="#fdfdfd" stroke="#cecece"></path><path d="M480 840.5L420.8 754.3L449.8 861.5Z" fill="#ffffff" stroke="#cecece"></path><path d="M581 794.8L626 782.3L584.8 713Z" fill="#ffffff" stroke="#cecece"></path><path d="M576.3 808.5L626 782.3L581 794.8Z" fill="#ffffff" stroke="#cecece"></path><path d="M802.5 413.3L812.5 380.8L711.3 397.5Z" fill="#fcfcfc" stroke="#cecece"></path><path d="M885.8 364.3L812.5 380.8L802.5 413.3Z" fill="#efefef" stroke="#cecece"></path><path d="M449.8 861.5L420.8 754.3L383 785.3Z" fill="#efefef" stroke="#cecece"></path><path d="M159.8 764.5L199.5 787.3L202.3 709.8Z" fill="#fdfdfd" stroke="#cecece"></path><path d="M254.5 762.8L260.3 884.5L350 796.8Z" fill="#fdfdfd" stroke="#cecece"></path><path d="M415.3 900L449.8 861.5L394.8 900Z" fill="#ffffff" stroke="#cecece"></path><path d="M666.8 56.5L612.5 84.3L649 123.3Z" fill="#f2f2f2" stroke="#cecece"></path><path d="M649 123.3L612.5 84.3L630 161.8Z" fill="#f5f5f5" stroke="#cecece"></path><path d="M348.3 0L329.3 32.3L418.5 73.5Z" fill="#fdfdfd" stroke="#cecece"></path><path d="M199.5 787.3L205.3 794.3L254.5 762.8Z" fill="#ffffff" stroke="#cecece"></path><path d="M0 487.8L43.3 500.3L60.5 435.3Z" fill="#fcfcfc" stroke="#cecece"></path><path d="M43.3 500.3L19.5 559.5L103.3 550.8Z" fill="#fdfdfd" stroke="#cecece"></path><path d="M116.5 744.8L159.8 764.5L202.3 709.8Z" fill="#f1f1f1" stroke="#cecece"></path><path d="M105.8 722L91.3 582L59.5 601.8Z" fill="#fafafa" stroke="#cecece"></path><path d="M199.5 787.3L179.5 817.5L205.3 794.3Z" fill="#f2f2f2" stroke="#cecece"></path><path d="M149.8 76.3L117.3 153L147.8 153.5Z" fill="#ffffff" stroke="#cecece"></path><path d="M113.5 176L64.3 127.3L106.5 185.3Z" fill="#f5f5f5" stroke="#cecece"></path><path d="M43.3 176.5L103.8 281.3L106.5 185.3Z" fill="#f9f9f9" stroke="#cecece"></path><path d="M43.3 176.5L12.3 331.3L103.8 281.3Z" fill="#f7f7f7" stroke="#cecece"></path><path d="M0 393L0 487.8L60.5 435.3Z" fill="#f5f5f5" stroke="#cecece"></path><path d="M0 389.5L0 393L60.5 435.3Z" fill="#fafafa" stroke="#cecece"></path><path d="M0 372.3L0 389.5L60.5 435.3Z" fill="#fcfcfc" stroke="#cecece"></path><path d="M0 487.8L0 496.5L43.3 500.3Z" fill="#f7f7f7" stroke="#cecece"></path><path d="M719.5 194.8L736 181L689.3 154.3Z" fill="#f4f4f4" stroke="#cecece"></path><path d="M689.3 154.3L707.5 126L649 123.3Z" fill="#f9f9f9" stroke="#cecece"></path><path d="M779.3 288.3L736 181L711.8 211.8Z" fill="#f7f7f7" stroke="#cecece"></path><path d="M0 642.3L105.8 722L59.5 601.8Z" fill="#f4f4f4" stroke="#cecece"></path><path d="M458 14.3L418.5 73.5L435.8 75.3Z" fill="#fcfcfc" stroke="#cecece"></path><path d="M418.5 73.5L329.3 32.3L387.8 138.8Z" fill="#ffffff" stroke="#cecece"></path><path d="M193.5 120.5L149.8 76.3L147.8 153.5Z" fill="#f4f4f4" stroke="#cecece"></path><path d="M626 782.3L673 765L584.8 713Z" fill="#f4f4f4" stroke="#cecece"></path><path d="M659.8 829.8L673 765L626 782.3Z" fill="#f2f2f2" stroke="#cecece"></path><path d="M12.3 331.3L0 372.3L60.5 435.3Z" fill="#f7f7f7" stroke="#cecece"></path><path d="M0 496.5L0 525.3L43.3 500.3Z" fill="#f9f9f9" stroke="#cecece"></path><path d="M96.3 773.5L116.5 744.8L105.8 722Z" fill="#f5f5f5" stroke="#cecece"></path><path d="M673 765L743 702.5L710.3 687.8Z" fill="#f1f1f1" stroke="#cecece"></path><path d="M729.3 678.3L806.5 622.8L690 575.5Z" fill="#f1f1f1" stroke="#cecece"></path><path d="M449.8 861.5L383 785.3L394.8 900Z" fill="#f2f2f2" stroke="#cecece"></path><path d="M480 840.5L546.8 900L576.3 808.5Z" fill="#ffffff" stroke="#cecece"></path><path d="M159.8 764.5L179.5 817.5L199.5 787.3Z" fill="#f2f2f2" stroke="#cecece"></path><path d="M105.8 722L116.5 744.8L202.3 709.8Z" fill="#f2f2f2" stroke="#cecece"></path><path d="M0 586L59.5 601.8L19.5 559.5Z" fill="#ffffff" stroke="#cecece"></path><path d="M539 15.5L458 14.3L435.8 75.3Z" fill="#f2f2f2" stroke="#cecece"></path><path d="M747 149.5L707.5 126L689.3 154.3Z" fill="#f9f9f9" stroke="#cecece"></path><path d="M429.8 0L429.5 0L458 14.3Z" fill="#f2f2f2" stroke="#cecece"></path><path d="M791.8 668.8L806.5 622.8L729.3 678.3Z" fill="#f5f5f5" stroke="#cecece"></path><path d="M0 168.8L-17.7 362.8L12.3 331.3Z" fill="#fafafa" stroke="#cecece"></path><path d="M12.3 331.3L-17.7 362.8L0 372.3Z" fill="#f7f7f7" stroke="#cecece"></path><path d="M0 372.3L-17.7 362.8L0 389.5Z" fill="#fdfdfd" stroke="#cecece"></path><path d="M0 389.5L-17.7 362.8L0 393Z" fill="#f2f2f2" stroke="#cecece"></path><path d="M0 393L-17.7 362.8L0 487.8Z" fill="#efefef" stroke="#cecece"></path><path d="M0 487.8L-17.7 362.8L0 496.5Z" fill="#fdfdfd" stroke="#cecece"></path><path d="M0 496.5L-17.7 362.8L0 525.3Z" fill="#fafafa" stroke="#cecece"></path><path d="M-19.7 744.8L0 586L0 525.3Z" fill="#f9f9f9" stroke="#cecece"></path><path d="M0 525.3L0 586L19.5 559.5Z" fill="#f5f5f5" stroke="#cecece"></path><path d="M806.5 622.8L826.8 585.5L735.3 540Z" fill="#f2f2f2" stroke="#cecece"></path><path d="M426 0L413.3 0L418.5 73.5Z" fill="#fcfcfc" stroke="#cecece"></path><path d="M429.5 0L426 0L418.5 73.5Z" fill="#f4f4f4" stroke="#cecece"></path><path d="M429.8 0L458 14.3L462.5 0Z" fill="#f4f4f4" stroke="#cecece"></path><path d="M458 14.3L429.5 0L418.5 73.5Z" fill="#ffffff" stroke="#cecece"></path><path d="M462.5 0L458 14.3L539 15.5Z" fill="#fafafa" stroke="#cecece"></path><path d="M804.3 694.5L784.8 676.3L743 702.5Z" fill="#fdfdfd" stroke="#cecece"></path><path d="M743 702.5L784.8 676.3L729.3 678.3Z" fill="#f1f1f1" stroke="#cecece"></path><path d="M806.5 622.8L881.5 595L826.8 585.5Z" fill="#ffffff" stroke="#cecece"></path><path d="M96.3 773.5L179.5 817.5L159.8 764.5Z" fill="#fcfcfc" stroke="#cecece"></path><path d="M365.5 900L394.8 900L350 796.8Z" fill="#f9f9f9" stroke="#cecece"></path><path d="M784.8 676.3L791.8 668.8L729.3 678.3Z" fill="#ffffff" stroke="#cecece"></path><path d="M539 15.5L536.3 184.8L612.5 84.3Z" fill="#ffffff" stroke="#cecece"></path><path d="M546.8 2.3L539 15.5L612.5 84.3Z" fill="#f5f5f5" stroke="#cecece"></path><path d="M736 181L747 149.5L689.3 154.3Z" fill="#fcfcfc" stroke="#cecece"></path><path d="M632.8 0L546.8 2.3L612.5 84.3Z" fill="#fafafa" stroke="#cecece"></path><path d="M768.8 154.5L747 149.5L736 181Z" fill="#fcfcfc" stroke="#cecece"></path><path d="M768.8 154.5L736 181L814.5 195.3Z" fill="#fafafa" stroke="#cecece"></path><path d="M-19.7 744.8L0 608.8L0 586Z" fill="#f1f1f1" stroke="#cecece"></path><path d="M0 586L0 608.8L59.5 601.8Z" fill="#f7f7f7" stroke="#cecece"></path><path d="M413.3 0L348.3 0L418.5 73.5Z" fill="#f7f7f7" stroke="#cecece"></path><path d="M167 49.3L149.8 76.3L193.5 120.5Z" fill="#fafafa" stroke="#cecece"></path><path d="M167 49.3L193.5 120.5L329.3 32.3Z" fill="#f7f7f7" stroke="#cecece"></path><path d="M64.3 127.3L43.3 176.5L106.5 185.3Z" fill="#ffffff" stroke="#cecece"></path><path d="M64.3 127.3L113.5 176L117.3 153Z" fill="#f2f2f2" stroke="#cecece"></path><path d="M814.5 195.3L736 181L779.3 288.3Z" fill="#fdfdfd" stroke="#cecece"></path><path d="M747 149.5L733.3 93.5L707.5 126Z" fill="#f9f9f9" stroke="#cecece"></path><path d="M-19.7 744.8L0 642.3L0 608.8Z" fill="#f2f2f2" stroke="#cecece"></path><path d="M0 608.8L0 642.3L59.5 601.8Z" fill="#fcfcfc" stroke="#cecece"></path><path d="M116.5 744.8L96.3 773.5L159.8 764.5Z" fill="#efefef" stroke="#cecece"></path><path d="M83.8 785.8L96.3 773.5L105.8 722Z" fill="#f4f4f4" stroke="#cecece"></path><path d="M666.8 56.5L649 123.3L707.5 126Z" fill="#f9f9f9" stroke="#cecece"></path><path d="M539 15.5L543.3 -6.7L462.5 0Z" fill="#efefef" stroke="#cecece"></path><path d="M394.8 900L383 785.3L350 796.8Z" fill="#efefef" stroke="#cecece"></path><path d="M449.8 861.5L508.5 900L480 840.5Z" fill="#ffffff" stroke="#cecece"></path><path d="M576.3 808.5L659.8 829.8L626 782.3Z" fill="#efefef" stroke="#cecece"></path><path d="M365.5 900L350 796.8L290 900Z" fill="#fdfdfd" stroke="#cecece"></path><path d="M415.3 900L452 900L449.8 861.5Z" fill="#efefef" stroke="#cecece"></path><path d="M733.3 93.5L666.8 56.5L707.5 126Z" fill="#f4f4f4" stroke="#cecece"></path><path d="M280.5 -38.7L167 49.3L329.3 32.3Z" fill="#fafafa" stroke="#cecece"></path><path d="M149.8 76.3L64.3 127.3L117.3 153Z" fill="#fafafa" stroke="#cecece"></path><path d="M648 900L659.8 829.8L576.3 808.5Z" fill="#f9f9f9" stroke="#cecece"></path><path d="M673 765L699.5 812.8L743 702.5Z" fill="#f4f4f4" stroke="#cecece"></path><path d="M784.8 676.3L804.3 694.5L791.8 668.8Z" fill="#efefef" stroke="#cecece"></path><path d="M260.3 884.5L254.5 762.8L205.3 794.3Z" fill="#f1f1f1" stroke="#cecece"></path><path d="M632.8 0L543.3 -6.7L546.8 2.3Z" fill="#f7f7f7" stroke="#cecece"></path><path d="M546.8 2.3L543.3 -6.7L539 15.5Z" fill="#f9f9f9" stroke="#cecece"></path><path d="M462.5 0L280.5 -38.7L429.8 0Z" fill="#f4f4f4" stroke="#cecece"></path><path d="M429.8 0L280.5 -38.7L429.5 0Z" fill="#f7f7f7" stroke="#cecece"></path><path d="M429.5 0L280.5 -38.7L426 0Z" fill="#f7f7f7" stroke="#cecece"></path><path d="M426 0L280.5 -38.7L413.3 0Z" fill="#fafafa" stroke="#cecece"></path><path d="M413.3 0L280.5 -38.7L348.3 0Z" fill="#f1f1f1" stroke="#cecece"></path><path d="M806.3 754L804.3 694.5L743 702.5Z" fill="#fdfdfd" stroke="#cecece"></path><path d="M791.8 668.8L804.3 694.5L806.5 622.8Z" fill="#ffffff" stroke="#cecece"></path><path d="M33.5 70.8L64.3 127.3L149.8 76.3Z" fill="#f9f9f9" stroke="#cecece"></path><path d="M214 878.8L260.3 884.5L205.3 794.3Z" fill="#fcfcfc" stroke="#cecece"></path><path d="M214 878.8L205.3 794.3L179.5 817.5Z" fill="#fcfcfc" stroke="#cecece"></path><path d="M96.3 773.5L166 840.5L179.5 817.5Z" fill="#f9f9f9" stroke="#cecece"></path><path d="M452 900L508.5 900L449.8 861.5Z" fill="#f9f9f9" stroke="#cecece"></path><path d="M659.8 829.8L699.5 812.8L673 765Z" fill="#f2f2f2" stroke="#cecece"></path><path d="M690.8 845.5L699.5 812.8L659.8 829.8Z" fill="#fafafa" stroke="#cecece"></path><path d="M864.5 279.5L814.5 195.3L779.3 288.3Z" fill="#fafafa" stroke="#cecece"></path><path d="M768.8 154.5L733.3 93.5L747 149.5Z" fill="#fcfcfc" stroke="#cecece"></path><path d="M864.5 279.5L779.3 288.3L812.5 380.8Z" fill="#fafafa" stroke="#cecece"></path><path d="M821.8 124.3L733.3 93.5L768.8 154.5Z" fill="#f7f7f7" stroke="#cecece"></path><path d="M262.3 903.8L290 900L260.3 884.5Z" fill="#f2f2f2" stroke="#cecece"></path><path d="M260.3 884.5L290 900L350 796.8Z" fill="#ffffff" stroke="#cecece"></path><path d="M96.3 773.5L77.8 806.3L166 840.5Z" fill="#f9f9f9" stroke="#cecece"></path><path d="M5.3 777.3L83.8 785.8L105.8 722Z" fill="#f4f4f4" stroke="#cecece"></path><path d="M508.5 900L546.8 900L480 840.5Z" fill="#efefef" stroke="#cecece"></path><path d="M900 546L799.8 422L826.8 585.5Z" fill="#f2f2f2" stroke="#cecece"></path><path d="M916.8 399.8L802.5 413.3L799.8 422Z" fill="#fafafa" stroke="#cecece"></path><path d="M231.3 900L214 878.8L217.8 900Z" fill="#fafafa" stroke="#cecece"></path><path d="M166 840.5L214 878.8L179.5 817.5Z" fill="#f9f9f9" stroke="#cecece"></path><path d="M885.8 364.3L864.5 279.5L812.5 380.8Z" fill="#efefef" stroke="#cecece"></path><path d="M231.3 900L262.3 903.8L260.3 884.5Z" fill="#fcfcfc" stroke="#cecece"></path><path d="M290 900L262.3 903.8L365.5 900Z" fill="#fafafa" stroke="#cecece"></path><path d="M365.5 900L262.3 903.8L394.8 900Z" fill="#f9f9f9" stroke="#cecece"></path><path d="M394.8 900L262.3 903.8L415.3 900Z" fill="#f1f1f1" stroke="#cecece"></path><path d="M415.3 900L262.3 903.8L452 900Z" fill="#f9f9f9" stroke="#cecece"></path><path d="M452 900L262.3 903.8L508.5 900Z" fill="#f9f9f9" stroke="#cecece"></path><path d="M508.5 900L262.3 903.8L546.8 900Z" fill="#f9f9f9" stroke="#cecece"></path><path d="M648 900L690.8 845.5L659.8 829.8Z" fill="#f4f4f4" stroke="#cecece"></path><path d="M699.5 812.8L806.3 754L743 702.5Z" fill="#efefef" stroke="#cecece"></path><path d="M661.3 0L632.8 0L666.8 56.5Z" fill="#f9f9f9" stroke="#cecece"></path><path d="M666.8 56.5L632.8 0L612.5 84.3Z" fill="#ffffff" stroke="#cecece"></path><path d="M0 166L0 168.8L43.3 176.5Z" fill="#fcfcfc" stroke="#cecece"></path><path d="M43.3 176.5L0 168.8L12.3 331.3Z" fill="#f9f9f9" stroke="#cecece"></path><path d="M0 166L43.3 176.5L64.3 127.3Z" fill="#efefef" stroke="#cecece"></path><path d="M214 878.8L231.3 900L260.3 884.5Z" fill="#f1f1f1" stroke="#cecece"></path><path d="M217.8 900L214 878.8L113.5 900Z" fill="#fafafa" stroke="#cecece"></path><path d="M900 603.3L881.5 595L900 683.3Z" fill="#f7f7f7" stroke="#cecece"></path><path d="M900 683.3L881.5 595L806.5 622.8Z" fill="#fdfdfd" stroke="#cecece"></path><path d="M-15.7 126.8L0 166L64.3 127.3Z" fill="#f4f4f4" stroke="#cecece"></path><path d="M0 168.8L-15.7 126.8L-17.7 362.8Z" fill="#f4f4f4" stroke="#cecece"></path><path d="M881.5 595L883.8 589.3L826.8 585.5Z" fill="#fdfdfd" stroke="#cecece"></path><path d="M5.3 777.3L77.8 806.3L83.8 785.8Z" fill="#ffffff" stroke="#cecece"></path><path d="M83.8 785.8L77.8 806.3L96.3 773.5Z" fill="#f2f2f2" stroke="#cecece"></path><path d="M900 334.8L879.8 277.5L864.5 279.5Z" fill="#fdfdfd" stroke="#cecece"></path><path d="M864.5 279.5L900 232.8L814.5 195.3Z" fill="#f5f5f5" stroke="#cecece"></path><path d="M543.3 -6.7L280.5 -38.7L462.5 0Z" fill="#f9f9f9" stroke="#cecece"></path><path d="M348.3 0L280.5 -38.7L329.3 32.3Z" fill="#fdfdfd" stroke="#cecece"></path><path d="M167 49.3L126 0L149.8 76.3Z" fill="#efefef" stroke="#cecece"></path><path d="M710 0L280.5 -38.7L543.3 -6.7Z" fill="#f7f7f7" stroke="#cecece"></path><path d="M113.5 900L214 878.8L166 840.5Z" fill="#ffffff" stroke="#cecece"></path><path d="M231.3 900L217.8 900L262.3 903.8Z" fill="#f2f2f2" stroke="#cecece"></path><path d="M883.8 589.3L900 546L826.8 585.5Z" fill="#f4f4f4" stroke="#cecece"></path><path d="M885.8 364.3L900 334.8L864.5 279.5Z" fill="#efefef" stroke="#cecece"></path><path d="M916.8 399.8L900 334.8L885.8 364.3Z" fill="#fafafa" stroke="#cecece"></path><path d="M805.8 834.8L806.3 754L699.5 812.8Z" fill="#fafafa" stroke="#cecece"></path><path d="M710 0L661.3 0L666.8 56.5Z" fill="#f5f5f5" stroke="#cecece"></path><path d="M632.8 0L661.3 0L543.3 -6.7Z" fill="#ffffff" stroke="#cecece"></path><path d="M710 0L666.8 56.5L733.3 93.5Z" fill="#f7f7f7" stroke="#cecece"></path><path d="M821.8 124.3L768.8 154.5L814.5 195.3Z" fill="#fdfdfd" stroke="#cecece"></path><path d="M900 546L916.8 399.8L799.8 422Z" fill="#f2f2f2" stroke="#cecece"></path><path d="M883.8 589.3L900 586.5L900 546Z" fill="#f1f1f1" stroke="#cecece"></path><path d="M900 546L900 586.5L916.8 399.8Z" fill="#efefef" stroke="#cecece"></path><path d="M900 603.3L900 586.5L883.8 589.3Z" fill="#f1f1f1" stroke="#cecece"></path><path d="M900 603.3L883.8 589.3L881.5 595Z" fill="#f2f2f2" stroke="#cecece"></path><path d="M861.8 754L826.5 739.3L806.3 754Z" fill="#f1f1f1" stroke="#cecece"></path><path d="M806.3 754L826.5 739.3L804.3 694.5Z" fill="#fcfcfc" stroke="#cecece"></path><path d="M280.5 -38.7L149.3 0L167 49.3Z" fill="#f7f7f7" stroke="#cecece"></path><path d="M900 683.3L806.5 622.8L804.3 694.5Z" fill="#f4f4f4" stroke="#cecece"></path><path d="M900 586.5L900 603.3L916.8 399.8Z" fill="#fafafa" stroke="#cecece"></path><path d="M900 334.8L896.8 267L879.8 277.5Z" fill="#ffffff" stroke="#cecece"></path><path d="M879.8 277.5L900 244.5L864.5 279.5Z" fill="#fcfcfc" stroke="#cecece"></path><path d="M900 244.5L896.8 267L900 334.8Z" fill="#f4f4f4" stroke="#cecece"></path><path d="M546.8 900L648 900L576.3 808.5Z" fill="#ffffff" stroke="#cecece"></path><path d="M690.8 845.5L728.3 870.8L699.5 812.8Z" fill="#f4f4f4" stroke="#cecece"></path><path d="M262.3 903.8L648 900L546.8 900Z" fill="#efefef" stroke="#cecece"></path><path d="M900 134.5L821.8 124.3L814.5 195.3Z" fill="#efefef" stroke="#cecece"></path><path d="M648 900L705.5 869.5L690.8 845.5Z" fill="#f7f7f7" stroke="#cecece"></path><path d="M126.5 -40.7L126 0L149.3 0Z" fill="#fafafa" stroke="#cecece"></path><path d="M149.3 0L126 0L167 49.3Z" fill="#efefef" stroke="#cecece"></path><path d="M916.8 399.8L900 244.5L900 334.8Z" fill="#f4f4f4" stroke="#cecece"></path><path d="M896.8 267L900 244.5L879.8 277.5Z" fill="#f5f5f5" stroke="#cecece"></path><path d="M-19.7 744.8L105.8 722L0 642.3Z" fill="#fdfdfd" stroke="#cecece"></path><path d="M-19.7 744.8L5.3 777.3L105.8 722Z" fill="#efefef" stroke="#cecece"></path><path d="M77.8 806.3L113.5 900L166 840.5Z" fill="#f4f4f4" stroke="#cecece"></path><path d="M-17.7 362.8L-19.7 744.8L0 525.3Z" fill="#f5f5f5" stroke="#cecece"></path><path d="M68.8 0L33.5 70.8L149.8 76.3Z" fill="#fdfdfd" stroke="#cecece"></path><path d="M0 86.3L-15.7 126.8L64.3 127.3Z" fill="#f7f7f7" stroke="#cecece"></path><path d="M0 166L-15.7 126.8L0 168.8Z" fill="#f5f5f5" stroke="#cecece"></path><path d="M916.8 399.8L900 233L900 244.5Z" fill="#fdfdfd" stroke="#cecece"></path><path d="M900 244.5L900 233L864.5 279.5Z" fill="#f9f9f9" stroke="#cecece"></path><path d="M916.8 399.8L900 232.8L900 233Z" fill="#fdfdfd" stroke="#cecece"></path><path d="M900 233L900 232.8L864.5 279.5Z" fill="#fcfcfc" stroke="#cecece"></path><path d="M797.5 58.5L710 0L733.3 93.5Z" fill="#f1f1f1" stroke="#cecece"></path><path d="M661.3 0L710 0L543.3 -6.7Z" fill="#f1f1f1" stroke="#cecece"></path><path d="M705.5 869.5L728.3 870.8L690.8 845.5Z" fill="#f9f9f9" stroke="#cecece"></path><path d="M734.3 900L728.3 870.8L705.5 869.5Z" fill="#fcfcfc" stroke="#cecece"></path><path d="M916.8 399.8L900 205.3L900 232.8Z" fill="#ffffff" stroke="#cecece"></path><path d="M900 232.8L900 205.3L814.5 195.3Z" fill="#f7f7f7" stroke="#cecece"></path><path d="M821.8 124.3L797.5 58.5L733.3 93.5Z" fill="#f7f7f7" stroke="#cecece"></path><path d="M33.5 70.8L0 86.3L64.3 127.3Z" fill="#fdfdfd" stroke="#cecece"></path><path d="M0 36.5L0 86.3L33.5 70.8Z" fill="#f9f9f9" stroke="#cecece"></path><path d="M852.5 54.3L797.5 58.5L821.8 124.3Z" fill="#f1f1f1" stroke="#cecece"></path><path d="M900 688.8L900 683.3L804.3 694.5Z" fill="#fcfcfc" stroke="#cecece"></path><path d="M900 603.3L900 683.3L916.8 399.8Z" fill="#efefef" stroke="#cecece"></path><path d="M900 688.8L804.3 694.5L900 699Z" fill="#fafafa" stroke="#cecece"></path><path d="M26.3 900L113.5 900L77.8 806.3Z" fill="#fdfdfd" stroke="#cecece"></path><path d="M217.8 900L113.5 900L262.3 903.8Z" fill="#fcfcfc" stroke="#cecece"></path><path d="M900 699L804.3 694.5L826.5 739.3Z" fill="#fdfdfd" stroke="#cecece"></path><path d="M900 683.3L900 688.8L916.8 399.8Z" fill="#fcfcfc" stroke="#cecece"></path><path d="M805.8 834.8L861.8 754L806.3 754Z" fill="#f2f2f2" stroke="#cecece"></path><path d="M861.8 754L900 699L826.5 739.3Z" fill="#f9f9f9" stroke="#cecece"></path><path d="M900 688.8L900 699L916.8 399.8Z" fill="#f5f5f5" stroke="#cecece"></path><path d="M728.3 870.8L805.8 834.8L699.5 812.8Z" fill="#fafafa" stroke="#cecece"></path><path d="M861.8 754L900 750.8L900 699Z" fill="#f4f4f4" stroke="#cecece"></path><path d="M126.5 -40.7L68.8 0L126 0Z" fill="#efefef" stroke="#cecece"></path><path d="M126 0L68.8 0L149.8 76.3Z" fill="#f1f1f1" stroke="#cecece"></path><path d="M280.5 -38.7L126.5 -40.7L149.3 0Z" fill="#fafafa" stroke="#cecece"></path><path d="M5.3 777.3L0 821.8L77.8 806.3Z" fill="#efefef" stroke="#cecece"></path><path d="M-19.7 744.8L0 821.8L5.3 777.3Z" fill="#f1f1f1" stroke="#cecece"></path><path d="M648 900L734.3 900L705.5 869.5Z" fill="#f7f7f7" stroke="#cecece"></path><path d="M728.3 870.8L770.5 900L805.8 834.8Z" fill="#f7f7f7" stroke="#cecece"></path><path d="M262.3 903.8L734.3 900L648 900Z" fill="#f2f2f2" stroke="#cecece"></path><path d="M900 205.3L900 134.5L814.5 195.3Z" fill="#f1f1f1" stroke="#cecece"></path><path d="M916.8 399.8L900 134.5L900 205.3Z" fill="#f5f5f5" stroke="#cecece"></path><path d="M19.5 0L33.5 70.8L68.8 0Z" fill="#efefef" stroke="#cecece"></path><path d="M19.5 0L0 36.5L33.5 70.8Z" fill="#fafafa" stroke="#cecece"></path><path d="M0 86.3L0 36.5L-15.7 126.8Z" fill="#fcfcfc" stroke="#cecece"></path><path d="M900 752.5L861.8 754L820.8 865.5Z" fill="#fcfcfc" stroke="#cecece"></path><path d="M900 752.5L900 750.8L861.8 754Z" fill="#ffffff" stroke="#cecece"></path><path d="M900 699L900 750.8L916.8 399.8Z" fill="#ffffff" stroke="#cecece"></path><path d="M820.8 865.5L861.8 754L805.8 834.8Z" fill="#f5f5f5" stroke="#cecece"></path><path d="M900 750.8L900 752.5L916.8 399.8Z" fill="#efefef" stroke="#cecece"></path><path d="M-19.7 744.8L0 850.5L0 821.8Z" fill="#f9f9f9" stroke="#cecece"></path><path d="M0 821.8L0 850.5L77.8 806.3Z" fill="#f4f4f4" stroke="#cecece"></path><path d="M262.3 903.8L770.5 900L734.3 900Z" fill="#f7f7f7" stroke="#cecece"></path><path d="M734.3 900L770.5 900L728.3 870.8Z" fill="#fafafa" stroke="#cecece"></path><path d="M262.3 903.8L772.8 900L770.5 900Z" fill="#fdfdfd" stroke="#cecece"></path><path d="M770.5 900L772.8 900L805.8 834.8Z" fill="#f7f7f7" stroke="#cecece"></path><path d="M892.8 86.8L852.5 54.3L821.8 124.3Z" fill="#ffffff" stroke="#cecece"></path><path d="M797.5 58.5L865.5 0L710 0Z" fill="#fcfcfc" stroke="#cecece"></path><path d="M126.5 -40.7L19.5 0L68.8 0Z" fill="#ffffff" stroke="#cecece"></path><path d="M772.8 900L820.8 865.5L805.8 834.8Z" fill="#f5f5f5" stroke="#cecece"></path><path d="M900 134.5L892.8 86.8L821.8 124.3Z" fill="#fdfdfd" stroke="#cecece"></path><path d="M0 850.5L26.3 900L77.8 806.3Z" fill="#f4f4f4" stroke="#cecece"></path><path d="M113.5 900L26.3 900L262.3 903.8Z" fill="#f4f4f4" stroke="#cecece"></path><path d="M126.5 -40.7L0 0L19.5 0Z" fill="#f1f1f1" stroke="#cecece"></path><path d="M19.5 0L0 0L0 36.5Z" fill="#efefef" stroke="#cecece"></path><path d="M0 36.5L0 0L-15.7 126.8Z" fill="#f4f4f4" stroke="#cecece"></path><path d="M916.8 399.8L900 74.3L900 134.5Z" fill="#fdfdfd" stroke="#cecece"></path><path d="M900 134.5L900 74.3L892.8 86.8Z" fill="#f4f4f4" stroke="#cecece"></path><path d="M892.8 86.8L900 74.3L852.5 54.3Z" fill="#f2f2f2" stroke="#cecece"></path><path d="M-19.7 744.8L0 900L0 850.5Z" fill="#f2f2f2" stroke="#cecece"></path><path d="M0 850.5L0 900L26.3 900Z" fill="#fafafa" stroke="#cecece"></path><path d="M26.3 900L0 900L262.3 903.8Z" fill="#f9f9f9" stroke="#cecece"></path><path d="M900 0L865.5 0L852.5 54.3Z" fill="#fdfdfd" stroke="#cecece"></path><path d="M852.5 54.3L865.5 0L797.5 58.5Z" fill="#f7f7f7" stroke="#cecece"></path><path d="M710 0L865.5 0L280.5 -38.7Z" fill="#fafafa" stroke="#cecece"></path><path d="M900.8 0L900 0L900 74.3Z" fill="#fafafa" stroke="#cecece"></path><path d="M900 74.3L900 0L852.5 54.3Z" fill="#fafafa" stroke="#cecece"></path><path d="M865.5 0L900 0L280.5 -38.7Z" fill="#fdfdfd" stroke="#cecece"></path><path d="M916.8 399.8L900.8 0L900 74.3Z" fill="#f5f5f5" stroke="#cecece"></path><path d="M900 0L900.8 0L280.5 -38.7Z" fill="#f2f2f2" stroke="#cecece"></path><path d="M262.3 903.8L900 900L772.8 900Z" fill="#f1f1f1" stroke="#cecece"></path><path d="M772.8 900L900 900L820.8 865.5Z" fill="#f9f9f9" stroke="#cecece"></path><path d="M820.8 865.5L900 900L900 752.5Z" fill="#ffffff" stroke="#cecece"></path><path d="M900 752.5L900 900L916.8 399.8Z" fill="#f5f5f5" stroke="#cecece"></path></g></svg>