<svg id="visual" viewBox="0 0 1920 1440" width="1920" height="1440" xmlns="http://www.w3.org/2000/svg" xmlns:xlink="http://www.w3.org/1999/xlink" version="1.1"><rect x="0" y="0" width="1920" height="1440" fill="#171717"></rect><path d="M0 1216L113 1161L226 1261L339 1303L452 1173L565 1144L678 1272L791 1275L904 1299L1016 1277L1129 1243L1242 1175L1355 1254L1468 1244L1581 1158L1694 1168L1807 1173L1920 1176L1920 1441L1807 1441L1694 1441L1581 1441L1468 1441L1355 1441L1242 1441L1129 1441L1016 1441L904 1441L791 1441L678 1441L565 1441L452 1441L339 1441L226 1441L113 1441L0 1441Z" fill="#1e1e1e" stroke-linecap="square" stroke-linejoin="bevel"></path></svg>